<svg width="26" height="26" viewBox="0 0 26 26" fill="none" xmlns="http://www.w3.org/2000/svg">
<path d="M19.0531 17.2777C18.8267 17.0482 18.5576 16.866 18.2613 16.7418C17.965 16.6175 17.6474 16.5535 17.3266 16.5535C17.0058 16.5535 16.6881 16.6175 16.3918 16.7418C16.0955 16.866 15.8265 17.0482 15.6 17.2777L14.4219 18.4677C13.0954 17.6174 11.8664 16.6209 10.7575 15.4967C9.64693 14.3745 8.66069 13.1334 7.81626 11.7953L8.99438 10.6053C9.22162 10.3765 9.40193 10.1047 9.52495 9.80544C9.64798 9.50616 9.71131 9.1853 9.71131 8.86124C9.71131 8.53719 9.64798 8.21632 9.52495 7.91704C9.40193 7.61777 9.22162 7.34596 8.99438 7.11722L6.69501 4.8028C6.47176 4.5725 6.20495 4.38988 5.91044 4.26581C5.61593 4.14174 5.29973 4.07874 4.98064 4.08056C4.65928 4.07977 4.34093 4.14317 4.04393 4.26712C3.74692 4.39107 3.4771 4.57312 3.25001 4.8028L2.14501 5.91076C1.61832 6.48278 1.22524 7.16675 0.994644 7.91239C0.764051 8.65803 0.701815 9.4464 0.81251 10.2195C1.07251 13.2972 3.07126 16.9987 6.15064 20.1174C9.23001 23.2361 12.935 25.2469 15.9819 25.5423C16.2092 25.5546 16.437 25.5546 16.6644 25.5423C17.3203 25.5701 17.975 25.4654 18.5903 25.2343C19.2056 25.0032 19.769 24.6503 20.2475 24.1964L21.3444 23.0802C21.5718 22.8508 21.752 22.5782 21.8747 22.2782C21.9974 21.9782 22.0602 21.6567 22.0594 21.332C22.0612 21.0097 21.9988 20.6903 21.876 20.3928C21.7532 20.0954 21.5724 19.8258 21.3444 19.6003L19.0531 17.2777ZM20.1988 21.923L19.0938 23.0309C18.6852 23.3749 18.2082 23.6262 17.6952 23.7678C17.1821 23.9093 16.645 23.938 16.12 23.8517C13.4794 23.6218 10.1156 21.7342 7.33688 18.9273C4.55813 16.1205 2.68938 12.7473 2.43751 10.08C2.34989 9.54976 2.37716 9.00661 2.51743 8.48803C2.6577 7.96945 2.90763 7.48776 3.25001 7.07618L4.39563 5.96001C4.47155 5.88394 4.56159 5.82376 4.66059 5.78292C4.75958 5.74208 4.86558 5.72137 4.97251 5.722C5.07944 5.72137 5.18544 5.74208 5.28443 5.78292C5.38343 5.82376 5.47346 5.88394 5.54939 5.96001L7.84876 8.30726C8.00009 8.46103 8.08503 8.66904 8.08503 8.88587C8.08503 9.10269 8.00009 9.3107 7.84876 9.46447L6.22376 11.1059C6.0966 11.2337 6.01489 11.4004 5.99138 11.5801C5.96786 11.7597 6.00386 11.9422 6.09376 12.099C7.06664 13.772 8.24911 15.3112 9.61189 16.6786C10.9656 18.0551 12.4894 19.2496 14.1456 20.2323C14.3009 20.3231 14.4815 20.3595 14.6593 20.3357C14.8372 20.312 15.0022 20.2294 15.1288 20.101L16.7538 18.4595C16.906 18.3067 17.1119 18.2209 17.3266 18.2209C17.5412 18.2209 17.7472 18.3067 17.8994 18.4595L20.1988 20.7822C20.2741 20.8589 20.3336 20.9498 20.3741 21.0498C20.4145 21.1498 20.435 21.2569 20.4344 21.3649C20.4293 21.5745 20.345 21.7742 20.1988 21.923ZM21.6125 4.52375C20.4833 3.37883 19.141 2.471 17.6628 1.85263C16.1847 1.23425 14.5999 0.917558 13 0.920801C12.7845 0.920801 12.5779 1.00727 12.4255 1.16118C12.2731 1.3151 12.1875 1.52385 12.1875 1.74152C12.1875 1.95919 12.2731 2.16794 12.4255 2.32185C12.5779 2.47577 12.7845 2.56224 13 2.56224C14.3946 2.56219 15.7755 2.84112 17.0629 3.38294C18.3502 3.92476 19.5186 4.71874 20.5006 5.71906C21.4826 6.71938 22.2588 7.90624 22.7843 9.21114C23.3098 10.516 23.5743 11.9131 23.5625 13.3218C23.5625 13.5395 23.6481 13.7483 23.8005 13.9022C23.9529 14.0561 24.1595 14.1426 24.375 14.1426C24.5905 14.1426 24.7972 14.0561 24.9495 13.9022C25.1019 13.7483 25.1875 13.5395 25.1875 13.3218C25.2031 11.6886 24.8948 10.0687 24.2808 8.55763C23.6668 7.0466 22.7595 5.67502 21.6125 4.52375Z" fill="#BABD21"/>
</svg>
