<svg width="37" height="32" viewBox="0 0 37 32" fill="none" xmlns="http://www.w3.org/2000/svg">
<path d="M9.79777 11.1299C9.90324 11.335 9.97062 11.499 9.99992 11.6221C10.0351 11.7451 10.0175 11.8389 9.94719 11.9033C9.87687 11.9678 9.74797 12.0088 9.56047 12.0264C9.37883 12.0439 9.12395 12.0527 8.79582 12.0527C8.52043 12.0527 8.30363 12.0469 8.14543 12.0352C7.98723 12.0234 7.86125 12.0059 7.7675 11.9824C7.67961 11.9531 7.61516 11.915 7.57414 11.8682C7.53312 11.8213 7.49797 11.7627 7.46867 11.6924L5.33293 7.58789L3.20598 11.6924C3.17082 11.7627 3.13273 11.8213 3.09172 11.8682C3.0507 11.915 2.98332 11.9531 2.88957 11.9824C2.80168 12.0059 2.6757 12.0234 2.51164 12.0352C2.35344 12.0469 2.1425 12.0527 1.87883 12.0527C1.57414 12.0527 1.33684 12.0439 1.16691 12.0264C1.00285 12.0088 0.891523 11.9678 0.83293 11.9033C0.774336 11.8389 0.762617 11.7451 0.797773 11.6221C0.83293 11.499 0.906172 11.335 1.0175 11.1299L3.74211 6.16406L1.21086 1.49707C1.10539 1.28613 1.03215 1.11914 0.991133 0.996094C0.955976 0.867187 0.970625 0.773438 1.03508 0.714844C1.10539 0.650391 1.23137 0.612305 1.41301 0.600586C1.59465 0.583008 1.85246 0.574219 2.18645 0.574219C2.46184 0.574219 2.67863 0.580078 2.83684 0.591797C3.0009 0.603516 3.1298 0.624023 3.22355 0.65332C3.3173 0.676758 3.38176 0.711914 3.41691 0.758789C3.45793 0.805664 3.49602 0.864258 3.53117 0.93457L5.52629 4.69629L7.46867 0.93457C7.50383 0.864258 7.53898 0.805664 7.57414 0.758789C7.61516 0.711914 7.67668 0.676758 7.75871 0.65332C7.8466 0.624023 7.96379 0.603516 8.11027 0.591797C8.26262 0.580078 8.47062 0.574219 8.7343 0.574219C9.02727 0.574219 9.25871 0.583008 9.42863 0.600586C9.59855 0.612305 9.71574 0.650391 9.7802 0.714844C9.84465 0.779297 9.8593 0.873047 9.82414 0.996094C9.79484 1.11914 9.73039 1.28613 9.63078 1.49707L7.09953 6.1377L9.79777 11.1299ZM22.8154 4.08105C22.8154 4.71973 22.7158 5.28516 22.5166 5.77734C22.3174 6.26953 22.0273 6.68555 21.6465 7.02539C21.2656 7.35938 20.7969 7.61426 20.2402 7.79004C19.6895 7.96582 19.0391 8.05371 18.2891 8.05371H17.3398V11.6836C17.3398 11.7422 17.3193 11.7949 17.2783 11.8418C17.2432 11.8887 17.1816 11.9268 17.0938 11.9561C17.0059 11.9854 16.8887 12.0088 16.7422 12.0264C16.5957 12.0439 16.4082 12.0527 16.1797 12.0527C15.957 12.0527 15.7695 12.0439 15.6172 12.0264C15.4707 12.0088 15.3535 11.9854 15.2656 11.9561C15.1777 11.9268 15.1162 11.8887 15.0811 11.8418C15.0459 11.7949 15.0283 11.7422 15.0283 11.6836V1.45312C15.0283 1.17773 15.0986 0.972656 15.2393 0.837891C15.3857 0.697266 15.5762 0.626953 15.8105 0.626953H18.4912C18.7607 0.626953 19.0156 0.638672 19.2559 0.662109C19.502 0.679688 19.7949 0.723633 20.1348 0.793945C20.4746 0.858398 20.8174 0.981445 21.1631 1.16309C21.5146 1.34473 21.8135 1.57617 22.0596 1.85742C22.3057 2.13281 22.4932 2.45801 22.6221 2.83301C22.751 3.20215 22.8154 3.61816 22.8154 4.08105ZM20.3984 4.24805C20.3984 3.84961 20.3281 3.52148 20.1875 3.26367C20.0469 3.00586 19.874 2.81543 19.6689 2.69238C19.4639 2.56934 19.2471 2.49316 19.0186 2.46387C18.7959 2.42871 18.5645 2.41113 18.3242 2.41113H17.3398V6.26953H18.377C18.7461 6.26953 19.0537 6.21973 19.2998 6.12012C19.5518 6.02051 19.7568 5.88281 19.915 5.70703C20.0732 5.52539 20.1934 5.31152 20.2754 5.06543C20.3574 4.81348 20.3984 4.54102 20.3984 4.24805ZM33.3282 8.8623C33.0704 9.51855 32.8155 10.0605 32.5636 10.4883C32.3175 10.916 32.0509 11.2559 31.7638 11.5078C31.4825 11.7539 31.172 11.9238 30.8321 12.0176C30.4981 12.1172 30.1143 12.167 29.6807 12.167C29.5225 12.167 29.3673 12.1553 29.2149 12.1318C29.0626 12.1143 28.919 12.0879 28.7843 12.0527C28.6495 12.0176 28.5323 11.9766 28.4327 11.9297C28.3331 11.8828 28.2598 11.8389 28.213 11.7979C28.1661 11.7568 28.128 11.7129 28.0987 11.666C28.0753 11.6133 28.0548 11.5459 28.0372 11.4639C28.0196 11.3818 28.005 11.2793 27.9932 11.1562C27.9874 11.0273 27.9845 10.8691 27.9845 10.6816C27.9845 10.3418 28.0079 10.1016 28.0548 9.96094C28.1075 9.81445 28.1866 9.74121 28.2921 9.74121C28.3448 9.74121 28.4034 9.76172 28.4679 9.80273C28.5323 9.84375 28.6085 9.8877 28.6964 9.93457C28.7901 9.98145 28.8956 10.0254 29.0128 10.0664C29.1358 10.1016 29.2794 10.1191 29.4434 10.1191C29.5665 10.1191 29.6807 10.1074 29.7862 10.084C29.8917 10.0547 29.9913 10.002 30.085 9.92578C30.1788 9.84961 30.2725 9.74414 30.3663 9.60938C30.46 9.46875 30.5596 9.28711 30.6651 9.06445L26.921 1.44434C26.8389 1.2627 26.7891 1.11621 26.7716 1.00488C26.7598 0.887695 26.7891 0.796875 26.8595 0.732422C26.9298 0.667969 27.047 0.626953 27.211 0.609375C27.3809 0.585937 27.6065 0.574219 27.8878 0.574219C28.1632 0.574219 28.3829 0.580078 28.547 0.591797C28.711 0.603516 28.8429 0.629883 28.9425 0.670898C29.0421 0.706055 29.1182 0.761719 29.171 0.837891C29.2237 0.908203 29.2764 1.00195 29.3292 1.11914L30.9288 4.56445C31.1046 4.93359 31.2716 5.30273 31.4298 5.67188C31.588 6.03516 31.7403 6.4043 31.8868 6.7793H31.9132C32.0304 6.38672 32.1534 6.00586 32.2823 5.63672C32.4171 5.26172 32.5636 4.86914 32.7218 4.45898L34.0313 0.960938C34.0606 0.878906 34.0987 0.814453 34.1456 0.767578C34.1925 0.714844 34.2628 0.673828 34.3565 0.644531C34.4503 0.615234 34.5792 0.597656 34.7432 0.591797C34.9073 0.580078 35.1212 0.574219 35.3848 0.574219C35.6544 0.574219 35.8682 0.583008 36.0264 0.600586C36.1846 0.618164 36.2989 0.65332 36.3692 0.706055C36.4395 0.75293 36.4718 0.820312 36.4659 0.908203C36.46 0.996094 36.4307 1.11035 36.378 1.25098L33.3282 8.8623ZM16.6757 29.2773C16.6757 29.4238 16.6699 29.5498 16.6582 29.6553C16.6523 29.7549 16.6406 29.8428 16.623 29.9189C16.6054 29.9893 16.582 30.0508 16.5527 30.1035C16.5234 30.1562 16.4765 30.2178 16.4121 30.2881C16.3476 30.3525 16.2216 30.4375 16.0341 30.543C15.8525 30.6484 15.6269 30.751 15.3574 30.8506C15.0937 30.9443 14.789 31.0234 14.4433 31.0879C14.1035 31.1523 13.7343 31.1846 13.3359 31.1846C12.5566 31.1846 11.8535 31.0645 11.2265 30.8242C10.5996 30.584 10.0664 30.2266 9.62691 29.752C9.18746 29.2715 8.85055 28.6738 8.61617 27.959C8.3818 27.2441 8.26461 26.4121 8.26461 25.4629C8.26461 24.4961 8.39352 23.6377 8.65133 22.8877C8.90914 22.1377 9.26949 21.5078 9.73238 20.998C10.1953 20.4883 10.749 20.1016 11.3935 19.8379C12.0439 19.5742 12.7587 19.4424 13.538 19.4424C13.8545 19.4424 14.1591 19.4688 14.4521 19.5215C14.7451 19.5742 15.0146 19.6445 15.2607 19.7324C15.5127 19.8145 15.7382 19.9111 15.9375 20.0225C16.1367 20.1338 16.2744 20.2305 16.3505 20.3125C16.4326 20.3887 16.4882 20.4531 16.5175 20.5059C16.5468 20.5586 16.5703 20.626 16.5879 20.708C16.6054 20.79 16.6171 20.8867 16.623 20.998C16.6347 21.1094 16.6406 21.2471 16.6406 21.4111C16.6406 21.5869 16.6347 21.7363 16.623 21.8594C16.6113 21.9824 16.5908 22.082 16.5615 22.1582C16.5322 22.2344 16.497 22.29 16.456 22.3252C16.415 22.3604 16.3681 22.3779 16.3154 22.3779C16.2275 22.3779 16.1162 22.3281 15.9814 22.2285C15.8466 22.123 15.6709 22.0088 15.4541 21.8857C15.2431 21.7568 14.9882 21.6426 14.6894 21.543C14.3964 21.4375 14.0449 21.3848 13.6347 21.3848C13.1836 21.3848 12.7793 21.4785 12.4218 21.666C12.0703 21.8477 11.7685 22.1113 11.5166 22.457C11.2705 22.7969 11.083 23.21 10.9541 23.6963C10.8252 24.1826 10.7607 24.7305 10.7607 25.3398C10.7607 26.0078 10.8281 26.5879 10.9629 27.0801C11.1035 27.5664 11.2998 27.9678 11.5517 28.2842C11.8095 28.6006 12.1171 28.8379 12.4746 28.9961C12.8379 29.1484 13.2451 29.2246 13.6962 29.2246C14.1064 29.2246 14.4609 29.1777 14.7597 29.084C15.0586 28.9844 15.3134 28.876 15.5244 28.7588C15.7412 28.6416 15.917 28.5361 16.0517 28.4424C16.1923 28.3486 16.3007 28.3018 16.3769 28.3018C16.4355 28.3018 16.4824 28.3135 16.5175 28.3369C16.5527 28.3604 16.582 28.4072 16.6054 28.4775C16.6289 28.5479 16.6464 28.6475 16.6582 28.7764C16.6699 28.8994 16.6757 29.0664 16.6757 29.2773ZM29.3243 20.5762C29.3243 20.7461 29.3155 20.8926 29.2979 21.0156C29.2862 21.1328 29.2657 21.2295 29.2364 21.3057C29.2071 21.376 29.169 21.4287 29.1221 21.4639C29.0811 21.499 29.0342 21.5166 28.9815 21.5166H26.1338V30.6836C26.1338 30.7422 26.1133 30.7949 26.0723 30.8418C26.0371 30.8887 25.9756 30.9268 25.8877 30.9561C25.7998 30.9854 25.6797 31.0088 25.5274 31.0264C25.3809 31.0439 25.1963 31.0527 24.9737 31.0527C24.751 31.0527 24.5635 31.0439 24.4112 31.0264C24.2647 31.0088 24.1475 30.9854 24.0596 30.9561C23.9717 30.9268 23.9073 30.8887 23.8662 30.8418C23.8311 30.7949 23.8135 30.7422 23.8135 30.6836V21.5166H20.9659C20.9073 21.5166 20.8575 21.499 20.8164 21.4639C20.7754 21.4287 20.7403 21.376 20.711 21.3057C20.6817 21.2295 20.6582 21.1328 20.6407 21.0156C20.6289 20.8926 20.6231 20.7461 20.6231 20.5762C20.6231 20.4004 20.6289 20.251 20.6407 20.1279C20.6582 20.0049 20.6817 19.9082 20.711 19.8379C20.7403 19.7617 20.7754 19.709 20.8164 19.6797C20.8575 19.6445 20.9073 19.627 20.9659 19.627H28.9815C29.0342 19.627 29.0811 19.6445 29.1221 19.6797C29.169 19.709 29.2071 19.7617 29.2364 19.8379C29.2657 19.9082 29.2862 20.0049 29.2979 20.1279C29.3155 20.251 29.3243 20.4004 29.3243 20.5762Z" fill="#BABD21"/>
</svg>
