<svg width="24" height="23" viewBox="0 0 24 23" fill="none" xmlns="http://www.w3.org/2000/svg">
<path d="M20.7805 0.527954H3.21952C1.44427 0.527954 0 1.98683 0 3.78003V22.7012H1.75608C1.75608 20.582 3.46294 18.8578 5.56097 18.8578H20.7805C22.5557 18.8578 24 17.399 24 15.6058V3.78003C24 1.98683 22.5557 0.527954 20.7805 0.527954ZM22.2439 15.6058C22.2439 16.4208 21.5874 17.084 20.7805 17.084H5.56097C4.09045 17.084 2.75156 17.6635 1.75608 18.6082V3.78003C1.75608 2.96496 2.41256 2.30184 3.21947 2.30184H20.7804C21.5873 2.30184 22.2438 2.96496 22.2438 3.78003V15.6058H22.2439Z" fill="#BABD21"/>
</svg>
